# xmcd CD database file
#
# Track frame offsets:
#	150
#	23803
#	44528
#	68060
#
# Disc length: 1178 seconds
#
# Revision: 2
# Processed by: cddbd v1.5.1PL0 Copyright (c) Steve Scherf et al.
# Submitted via: CDex 1.51
#
DISCID=2e049804
DTITLE=大塚愛 - ネコに風船
DYEAR=2005
DGENRE=JPop
TTITLE0=ネコに風船
TTITLE1=夏空
TTITLE2=ネコに風船 -instrumental-
TTITLE3=夏空 -instrumental-
EXTD=YEAR: 2005
EXTT0=
EXTT1=
EXTT2=
EXTT3=
PLAYORDER=
